<svg width="25" height="501" viewBox="0 0 25 501" fill="none" xmlns="http://www.w3.org/2000/svg">
<path d="M25 1L21 1C9.95431 1 1 9.95431 1 21L1 82C1 93.0457 9.9543 102 21 102H25" stroke="#DEDDDD"/>
<path d="M25 1L21 1C9.95431 1 1 9.9543 1 21L1 221C1 232.046 9.9543 241 21 241H25" stroke="#DEDDDD"/>
<path d="M25 1L21 1C9.95431 1 1 9.9543 1 21L1 362C1 373.046 9.9543 382 21 382H25" stroke="#DEDDDD"/>
<path d="M25 1L21 1C9.95431 1 1 9.95431 1 21L1 480C1 491.046 9.9543 500 21 500H25" stroke="#DEDDDD"/>
</svg>
