<svg width="18" height="18" viewBox="0 0 18 18" fill="none" xmlns="http://www.w3.org/2000/svg">
<path d="M9 1C4.58214 1 1 4.58214 1 9C1 13.4179 4.58214 17 9 17C13.4179 17 17 13.4179 17 9C17 4.58214 13.4179 1 9 1ZM9 15.6429C5.33214 15.6429 2.35714 12.6679 2.35714 9C2.35714 5.33214 5.33214 2.35714 9 2.35714C12.6679 2.35714 15.6429 5.33214 15.6429 9C15.6429 12.6679 12.6679 15.6429 9 15.6429Z" fill="#7A7A9D" stroke="white" stroke-width="0.25"/>
<path d="M12.1203 11.2615L9.57384 9.4204V5.00077C9.57384 4.9222 9.50955 4.85791 9.43098 4.85791H8.57206C8.49348 4.85791 8.4292 4.9222 8.4292 5.00077V9.91861C8.4292 9.96504 8.45063 10.0079 8.48813 10.0347L11.4417 12.1882C11.506 12.2347 11.5953 12.2204 11.6417 12.1579L12.1524 11.4615C12.1988 11.3954 12.1845 11.3061 12.1203 11.2615Z" fill="#7A7A9D" stroke="white" stroke-width="0.25"/>
</svg>
