<svg width="14" height="14" viewBox="0 0 14 14" fill="none" xmlns="http://www.w3.org/2000/svg">
<path d="M5.875 13C5.81448 13 5.75351 12.9855 5.69803 12.9555C5.57599 12.8905 5.5 12.763 5.5 12.625V7.815C5.5 7.64005 5.42648 7.47195 5.29749 7.35403L1.28354 3.67746C1.103 3.51147 1 3.27646 1 3.03247V1.87497C1 1.39249 1.39249 1 1.87497 1H12.125C12.6075 1 13 1.39249 13 1.87497V3.03247C13 3.27646 12.897 3.51147 12.717 3.67746L8.70352 7.35449C8.57352 7.47195 8.5 7.64005 8.5 7.815V10.857C8.5 11.15 8.35452 11.4225 8.11053 11.585L6.08301 12.9365C6.02048 12.979 5.94797 13 5.875 13ZM1.87497 1.75C1.80603 1.75 1.75 1.80603 1.75 1.87497V3.03247C1.75 3.06754 1.76501 3.10104 1.79102 3.12503L5.8035 6.80096C6.08704 7.06097 6.25 7.43048 6.25 7.815V11.924L7.69452 10.961C7.72903 10.938 7.75 10.899 7.75 10.857V7.815C7.75 7.43002 7.91251 7.06052 8.19696 6.80096L12.2095 3.12448C12.235 3.10104 12.25 3.06754 12.25 3.03247V1.87497C12.25 1.80603 12.194 1.75 12.125 1.75H1.87497Z" fill="black" stroke="black" stroke-width="0.25"/>
</svg>
