<svg width="20" height="21" viewBox="0 0 20 21" fill="none" xmlns="http://www.w3.org/2000/svg">
<path d="M2.08337 11.6609V10.2193C2.08337 8.49428 3.4917 7.08594 5.2167 7.08594H14.7834C16.5084 7.08594 17.9167 8.49428 17.9167 10.2193V11.4193H16.2334C15.7667 11.4193 15.3417 11.6026 15.0334 11.9193C14.6834 12.2609 14.4834 12.7526 14.5334 13.2776C14.6084 14.1776 15.4334 14.8359 16.3334 14.8359H17.9167V15.8276C17.9167 17.5526 16.5084 18.9609 14.7834 18.9609H10.2167" stroke="#FD9F35" stroke-width="1.3" stroke-linecap="round" stroke-linejoin="round"/>
<path d="M2.08337 10.969V7.16074C2.08337 6.16907 2.6917 5.2857 3.6167 4.9357L10.2334 2.4357C11.2667 2.04404 12.375 2.81073 12.375 3.91906V7.08572" stroke="#FD9F35" stroke-width="1.3" stroke-linecap="round" stroke-linejoin="round"/>
<path d="M18.799 12.2689V13.9856C18.799 14.444 18.4324 14.8189 17.9657 14.8356H16.3324C15.4324 14.8356 14.6074 14.1773 14.5324 13.2773C14.4824 12.7523 14.6824 12.2606 15.0324 11.9189C15.3407 11.6023 15.7657 11.4189 16.2324 11.4189H17.9657C18.4324 11.4356 18.799 11.8106 18.799 12.2689Z" stroke="#FD9F35" stroke-width="1.3" stroke-linecap="round" stroke-linejoin="round"/>
<path d="M5.83337 10.627H11.6667" stroke="#FD9F35" stroke-width="1.3" stroke-linecap="round" stroke-linejoin="round"/>
<path d="M2.5 14.377H6.95C7.48333 14.377 7.91667 14.8103 7.91667 15.3436V16.4103" stroke="#FD9F35" stroke-width="1.3" stroke-miterlimit="10" stroke-linecap="round" stroke-linejoin="round"/>
<path d="M3.51667 13.3604L2.5 14.377L3.51667 15.3936" stroke="#FD9F35" stroke-width="1.3" stroke-miterlimit="10" stroke-linecap="round" stroke-linejoin="round"/>
<path d="M7.91667 18.7775H3.46667C2.93334 18.7775 2.5 18.3441 2.5 17.8108V16.7441" stroke="#FD9F35" stroke-width="1.3" stroke-miterlimit="10" stroke-linecap="round" stroke-linejoin="round"/>
<path d="M6.901 19.7941L7.91767 18.7774L6.901 17.7607" stroke="#FD9F35" stroke-width="1.3" stroke-miterlimit="10" stroke-linecap="round" stroke-linejoin="round"/>
</svg>
